<svg width="49" height="49" viewBox="0 0 49 49" fill="none" xmlns="http://www.w3.org/2000/svg">
<path d="M24.4997 6.52343V1C15.572 1 7.78218 5.66061 3.61084 12.5825L8.62349 15.3611C11.7927 10.0944 17.714 6.54466 24.4997 6.52343Z" fill="#E9F1F5" stroke="white" stroke-miterlimit="10"/>
<path d="M24.5003 6.52343V1C33.428 1 41.2178 5.66061 45.3892 12.5825L40.3765 15.3611C37.2073 10.0944 31.286 6.54466 24.5003 6.52343Z" fill="#5EBBBB" stroke="white" stroke-miterlimit="10"/>
<path d="M8.6064 33.6389L3.61084 36.4095C7.78218 43.3366 15.572 48 24.4997 48V42.5109C17.7009 42.4906 11.7716 38.9262 8.6064 33.6389Z" fill="#E9F1F5" stroke="white" stroke-miterlimit="10"/>
<path d="M40.4838 33.6389C37.3015 38.9321 31.3631 42.4926 24.5603 42.4926C24.5402 42.4926 24.5201 42.4917 24.5 42.4917V48C33.4277 48 41.2175 43.3202 45.3889 36.3698L40.4838 33.6389Z" fill="#E9F1F5" stroke="white" stroke-miterlimit="10"/>
<path d="M44.894 12.75L40.167 15.5186C41.6844 18.1637 42.5542 21.2379 42.5542 24.5196C42.5542 27.7886 41.6912 30.8529 40.1834 33.4912L44.894 36.25C46.8661 32.7939 48.0003 28.7826 48.0003 24.501C48.0003 20.2193 46.8661 16.208 44.894 12.75Z" fill="#E9F1F5" stroke="white" stroke-miterlimit="10"/>
<path d="M6.50128 24.5191C6.50128 21.259 7.34991 18.2027 8.83333 15.5694L4.07281 12.75C2.12164 16.2069 1 20.2181 1 24.4995C1 28.781 2.12164 32.7921 4.07186 36.25L8.81615 33.4404C7.34322 30.813 6.50128 27.7664 6.50128 24.5191Z" fill="#E9F1F5" stroke="white" stroke-miterlimit="10"/>
</svg>
