<svg width="1013" height="779" viewBox="0 0 1013 779" fill="none" xmlns="http://www.w3.org/2000/svg">
<path d="M242.073 78.5431C238.169 74.6399 231.831 74.6399 227.927 78.5431C224.024 82.4462 224.024 88.7852 227.927 92.6884C231.831 96.5915 238.169 96.5915 242.073 92.6884C245.976 88.7852 245.976 82.4462 242.073 78.5431Z" fill="#E9F1F5"/>
<path d="M431.606 771.196C431.517 771.196 431.428 771.196 431.383 771.196C415.863 769.855 400.299 767.531 385.182 764.357C383.706 764.045 382.767 762.614 383.08 761.139C383.393 759.664 384.869 758.726 386.3 759.039C401.194 762.167 416.534 764.447 431.83 765.788C433.306 765.922 434.424 767.218 434.29 768.738C434.156 770.123 432.993 771.196 431.606 771.196ZM196.577 662.002C195.862 662.002 195.191 661.734 194.654 661.198C180.298 646.895 166.925 631.296 155.028 614.937C154.134 613.73 154.402 612.032 155.61 611.138C156.817 610.244 158.517 610.512 159.411 611.719C171.174 627.899 184.323 643.23 198.501 657.354C199.574 658.427 199.574 660.125 198.501 661.198C197.964 661.734 197.293 662.002 196.577 662.002ZM93.2184 473.473C91.9661 473.473 90.848 472.623 90.5796 471.327C84.8549 444.867 81.9478 417.691 81.9478 390.516C81.9478 379.297 82.4397 367.944 83.4237 356.725C86.465 321.862 94.2024 287.759 106.412 255.309C106.949 253.923 108.514 253.208 109.901 253.745C111.287 254.281 112.003 255.845 111.466 257.231C99.4352 289.234 91.8319 322.845 88.7907 357.217C87.8067 368.257 87.3147 379.431 87.3147 390.516C87.3147 417.289 90.1771 444.107 95.8572 470.165C96.1703 471.64 95.231 473.07 93.7998 473.383C93.5762 473.428 93.3973 473.473 93.2184 473.473ZM843.343 425.916C843.254 425.916 843.164 425.916 843.12 425.916C841.644 425.781 840.526 424.485 840.66 422.966C841.644 411.926 842.136 400.751 842.136 389.667C842.136 348.412 835.427 307.783 822.188 268.852C821.696 267.422 822.457 265.902 823.888 265.41C825.319 264.919 826.84 265.679 827.332 267.109C840.749 306.576 847.592 347.831 847.592 389.667C847.592 400.885 847.1 412.238 846.116 423.457C845.937 424.843 844.73 425.916 843.343 425.916ZM134.678 204.266C134.231 204.266 133.784 204.132 133.337 203.908C132.04 203.148 131.592 201.494 132.353 200.198C158.83 153.982 194.028 114.426 237.053 82.6017C238.261 81.7078 239.961 81.976 240.855 83.1828C241.75 84.3896 241.481 86.0881 240.274 86.982C197.875 118.359 163.168 157.379 137.049 202.925C136.512 203.774 135.618 204.266 134.678 204.266ZM501.154 14.7078C501.064 14.7078 500.975 14.7078 500.885 14.7078L497.576 14.3949C478.791 12.7411 459.694 12.4729 440.775 13.6797C439.299 13.8138 438.002 12.6517 437.913 11.132C437.823 9.65706 438.941 8.36085 440.462 8.27146C459.649 7.06466 479.015 7.33283 498.068 9.0313L501.422 9.34418C502.898 9.47826 504.016 10.8192 503.882 12.2941C503.748 13.635 502.54 14.7078 501.154 14.7078Z" fill="#E9F1F5"/>
<path d="M789.897 717.784C789.182 717.784 788.511 717.516 787.974 716.979C786.9 715.906 786.9 714.208 787.974 713.135C825.23 675.858 855.508 633.084 877.871 585.929C878.497 584.588 880.107 584.007 881.494 584.633C882.835 585.259 883.417 586.868 882.791 588.253C860.16 635.989 829.523 679.3 791.82 716.979C791.284 717.516 790.613 717.784 789.897 717.784ZM139.509 717.784C138.793 717.784 138.122 717.516 137.585 716.979C88.3882 667.813 51.7585 609.931 28.6805 544.942C28.1885 543.512 28.9041 541.992 30.3353 541.456C31.7665 540.964 33.2872 541.68 33.8239 543.11C56.6335 607.383 92.8159 664.55 141.432 713.135C142.505 714.208 142.505 715.906 141.432 716.979C140.94 717.516 140.224 717.784 139.509 717.784ZM902.604 533.545C902.335 533.545 902.067 533.5 901.754 533.411C900.323 532.964 899.562 531.444 900.01 530.014C914.5 484.826 921.88 437.76 921.88 390.114C921.88 365.307 919.823 340.322 915.842 315.873C915.619 314.398 916.603 313.012 918.078 312.744C919.554 312.476 920.941 313.504 921.209 314.979C925.279 339.741 927.336 364.994 927.336 390.069C927.336 438.252 919.912 485.898 905.242 531.623C904.84 532.785 903.766 533.545 902.604 533.545ZM14.8605 488.491C13.6082 488.491 12.4901 487.597 12.2218 486.345C5.51305 454.79 2.15869 422.429 2.15869 390.069C2.15869 369.643 3.50044 349.038 6.22865 328.835C6.45227 327.36 7.83875 326.287 9.26994 326.511C10.7459 326.689 11.8193 328.075 11.5956 329.55C8.95687 349.529 7.5704 369.866 7.5704 390.069C7.5704 422.027 10.9248 454.03 17.544 485.228C17.8571 486.703 16.9179 488.133 15.442 488.446C15.2183 488.491 15.0394 488.491 14.8605 488.491ZM867.137 170.118C866.198 170.118 865.258 169.626 864.766 168.732C855.061 151.256 844.104 134.226 832.162 118.18C831.268 116.973 831.536 115.275 832.743 114.381C833.951 113.487 835.651 113.711 836.545 114.962C848.621 131.187 859.713 148.44 869.507 166.095C870.223 167.391 869.776 169.045 868.434 169.76C868.076 169.983 867.584 170.118 867.137 170.118ZM86.9122 130.561C86.3755 130.561 85.8388 130.382 85.3469 130.069C84.0946 129.22 83.8262 127.522 84.676 126.315C96.215 109.733 109.006 93.7312 122.692 78.7579C123.721 77.6405 125.42 77.5511 126.538 78.5791C127.657 79.6071 127.701 81.3056 126.717 82.423C113.166 97.2623 100.553 113.04 89.1485 129.444C88.6118 130.159 87.8067 130.561 86.9122 130.561Z" fill="#E9F1F5"/>
<circle cx="134.5" cy="203.5" r="10.5" fill="#E9F1F5"/>
<circle cx="81.5" cy="131.5" r="10.5" fill="#E9F1F5"/>
<circle cx="10.5" cy="318.5" r="10.5" fill="#E9F1F5"/>
<circle cx="15.5" cy="490.5" r="10.5" fill="#E9F1F5"/>
<circle cx="125.5" cy="77.5" r="10.5" fill="#E9F1F5"/>
<circle cx="843.5" cy="431.5" r="10.5" fill="#E9F1F5"/>
<circle cx="439.5" cy="10.5" r="10.5" fill="#E9F1F5"/>
<circle cx="508.5" cy="10.5" r="10.5" fill="#E9F1F5"/>
<circle cx="107.5" cy="260.5" r="10.5" fill="#E9F1F5"/>
<circle cx="835.5" cy="115.5" r="10.5" fill="#E9F1F5"/>
<circle cx="868.5" cy="170.5" r="10.5" fill="#E9F1F5"/>
<circle cx="917.5" cy="312.5" r="10.5" fill="#5EBBBB"/>
<circle cx="900.5" cy="532.5" r="10.5" fill="#5EBBBB"/>
<circle cx="787.5" cy="717.5" r="10.5" fill="#E9F1F5"/>
<circle cx="439.5" cy="768.5" r="10.5" fill="#E9F1F5"/>
<circle cx="380.5" cy="761.5" r="10.5" fill="#E9F1F5"/>
<circle cx="199.5" cy="662.5" r="10.5" fill="#E9F1F5"/>
<circle cx="155.5" cy="607.5" r="10.5" fill="#E9F1F5"/>
<circle cx="125.5" cy="78.1157" r="10.5" fill="#947AAB"/>
<circle cx="787.5" cy="717.116" r="10.5" fill="#947AAB"/>
<circle cx="879.5" cy="587.5" r="10.5" fill="#E9F1F5"/>
<circle cx="96.5" cy="475.5" r="10.5" fill="#E9F1F5"/>
<circle cx="32.5" cy="545.5" r="10.5" fill="#947AAB"/>
<rect x="3" y="393" width="83" height="5" fill="#E9F1F5"/>
<rect x="844" y="389" width="83" height="5" fill="#E9F1F5"/>
<rect x="103.492" y="101.012" width="83" height="5" transform="rotate(36.875 103.492 101.012)" fill="#E9F1F5"/>
<g clip-path="url(#clip0)">
<path d="M139.336 719C138.637 719 137.982 718.738 137.458 718.215C89.4251 670.292 53.6623 613.874 31.1304 550.529C30.6501 549.134 31.3924 547.653 32.7461 547.13C34.1434 546.651 35.6717 547.392 36.1521 548.742C58.4219 611.391 93.7481 667.112 141.213 714.469C142.261 715.514 142.261 717.17 141.213 718.215C140.689 718.738 140.034 719 139.336 719Z" fill="#947AAB"/>
</g>
<rect x="777" y="606" width="83" height="5" transform="rotate(36.875 777 606)" fill="#E9F1F5"/>
<g clip-path="url(#clip1)">
<path d="M921.235 318.557C921.826 318.993 922.216 319.624 922.332 320.393C932.976 390.895 927.944 460.909 907.406 528.509C906.94 529.987 905.388 530.775 903.917 530.371C902.437 529.903 901.609 528.322 902.047 526.881C922.371 460.033 927.336 390.881 916.818 321.212C916.586 319.674 917.62 318.275 919.159 318.046C919.928 317.932 920.645 318.12 921.235 318.557Z" fill="#5EBBBB"/>
</g>
<defs>
<clipPath id="clip0">
<rect width="111" height="172" fill="white" transform="translate(31 547)"/>
</clipPath>
<clipPath id="clip1">
<rect width="116.643" height="180.745" fill="white" transform="translate(905.312 531.573) rotate(-143.52)"/>
</clipPath>
</defs>
</svg>
