<?xml version="1.0" encoding="utf-8"?>
<!-- Generator: Adobe Illustrator 25.0.1, SVG Export Plug-In . SVG Version: 6.00 Build 0)  -->
<svg version="1.1" id="Layer_1" xmlns="http://www.w3.org/2000/svg" xmlns:xlink="http://www.w3.org/1999/xlink" x="0px" y="0px"
	 viewBox="0 0 2500 2500" style="enable-background:new 0 0 2500 2500;" xml:space="preserve">
<style type="text/css">
	.st0{fill:#9978AE;}
	.st1{fill:#FFFFFF;}
	.st2{fill:#2FBDBC;}
	.st3{fill:#C2D7D8;}
	.st4{font-family:'ArialMT';}
	.st5{font-size:12px;}
</style>
<g>
	<g>
		<g>
			<g>
				<g>
					<g>
						<path class="st0" d="M1033.39,2034.22c-0.05,0-0.09-0.01-0.14-0.02c-187.74-55.86-349.48-177.95-455.43-343.76
							c-0.15-0.23-0.08-0.54,0.15-0.69c0.23-0.15,0.54-0.08,0.69,0.15c105.82,165.61,267.36,287.55,454.87,343.34
							c0.26,0.08,0.42,0.36,0.34,0.62C1033.81,2034.08,1033.61,2034.22,1033.39,2034.22z"/>
					</g>
				</g>
				<g>
					<g>
						<g>
							<g>
								<path class="st1" d="M1037.72,2015.53c9.76,2.9,15.31,13.17,12.41,22.92c-2.9,9.75-13.17,15.31-22.92,12.41
									c-9.76-2.9-15.31-13.17-12.41-22.92C1017.7,2018.18,1027.96,2012.62,1037.72,2015.53z"/>
							</g>
						</g>
						<g>
							<g>
								<path class="st0" d="M1038.41,2013.18c-11.03-3.28-22.69,3.02-25.97,14.06c-3.28,11.03,3.02,22.69,14.06,25.97
									s22.69-3.02,25.97-14.06C1055.76,2028.11,1049.45,2016.46,1038.41,2013.18C1027.38,2009.89,1049.45,2016.46,1038.41,2013.18
									z M1027.9,2048.51c-8.45-2.51-13.27-11.43-10.76-19.87c2.51-8.45,11.43-13.27,19.87-10.76
									c8.45,2.51,13.27,11.43,10.76,19.87C1045.26,2046.2,1036.35,2051.02,1027.9,2048.51
									C1019.45,2045.99,1036.35,2051.02,1027.9,2048.51z"/>
							</g>
						</g>
					</g>
				</g>
				<g>
					<g>
						<g>
							<g>
								<path class="st1" d="M594.55,1681.02c-5.48-8.58-16.87-11.1-25.45-5.62s-11.1,16.87-5.62,25.45s16.87,11.1,25.45,5.62
									C597.5,1701,600.02,1689.6,594.55,1681.02z"/>
							</g>
						</g>
						<g>
							<g>
								<path class="st0" d="M596.61,1679.7c6.19,9.71,3.34,22.64-6.37,28.84c-9.71,6.19-22.64,3.34-28.84-6.37
									c-6.19-9.71-3.34-22.64,6.37-28.84C577.48,1667.14,590.42,1670,596.61,1679.7C602.81,1689.41,590.42,1670,596.61,1679.7z
									 M565.54,1699.54c4.74,7.43,14.64,9.61,22.07,4.87s9.61-14.64,4.87-22.07c-4.74-7.43-14.64-9.61-22.07-4.87
									C562.98,1682.21,560.8,1692.11,565.54,1699.54C570.28,1706.97,560.8,1692.11,565.54,1699.54z"/>
							</g>
						</g>
					</g>
				</g>
			</g>
		</g>
	</g>
	<g>
		<g>
			<g>
				<g>
					<g>
						<path class="st2" d="M1286.35,2067.78c-0.27,0-0.49-0.22-0.5-0.49c-0.01-0.28,0.21-0.5,0.49-0.51
							c31.87-0.76,63.95-3.39,95.33-7.82c85.14-12.03,167.41-37.35,244.51-75.28c75.22-37,144.16-85.29,204.88-143.52
							c0.2-0.19,0.52-0.18,0.71,0.02c0.19,0.2,0.18,0.52-0.02,0.71c-60.8,58.3-129.82,106.65-205.13,143.7
							c-77.2,37.98-159.56,63.34-244.81,75.38c-31.43,4.44-63.54,7.07-95.45,7.83C1286.36,2067.78,1286.36,2067.78,1286.35,2067.78z
							"/>
					</g>
				</g>
				<g>
					<g>
						<g>
							<g>
								<path class="st2" d="M1817.72,1827.33c7.45-6.93,19.12-6.5,26.05,0.95s6.5,19.12-0.95,26.05s-19.12,6.5-26.05-0.95
									C1809.84,1845.92,1810.26,1834.26,1817.72,1827.33z"/>
							</g>
						</g>
						<g>
							<g>
								<path class="st2" d="M1816.05,1825.53c-8.43,7.84-8.92,21.08-1.08,29.51c7.84,8.43,21.08,8.92,29.51,1.08
									c8.43-7.84,8.92-21.08,1.08-29.51C1837.72,1818.18,1824.48,1817.69,1816.05,1825.53
									C1807.62,1833.37,1824.48,1817.69,1816.05,1825.53z M1841.15,1852.53c-6.46,6-16.58,5.63-22.58-0.82s-5.63-16.58,0.82-22.58
									c6.46-6,16.58-5.63,22.58,0.82S1847.6,1846.53,1841.15,1852.53C1834.69,1858.53,1847.6,1846.53,1841.15,1852.53z"/>
							</g>
						</g>
					</g>
				</g>
				<g>
					<g>
						<g>
							<g>
								<path class="st2" d="M1286.79,2048.36c-10.17,0.36-18.13,8.89-17.77,19.07c0.36,10.17,8.89,18.13,19.07,17.77
									c10.17-0.36,18.13-8.89,17.77-19.07C1305.5,2055.96,1296.96,2048,1286.79,2048.36z"/>
							</g>
						</g>
						<g>
							<g>
								<path class="st2" d="M1286.7,2045.91c11.51-0.4,21.2,8.63,21.6,20.14s-8.63,21.2-20.14,21.6
									c-11.51,0.4-21.2-8.63-21.6-20.14C1266.16,2056.01,1275.2,2046.31,1286.7,2045.91
									C1298.21,2045.51,1275.2,2046.31,1286.7,2045.91z M1287.99,2082.75c8.81-0.31,15.72-7.72,15.41-16.53
									s-7.72-15.72-16.53-15.41s-15.72,7.72-15.41,16.53S1279.19,2083.06,1287.99,2082.75
									C1296.8,2082.44,1279.19,2083.06,1287.99,2082.75z"/>
							</g>
						</g>
					</g>
				</g>
			</g>
		</g>
	</g>
	<g>
		<g>
			<path class="st2" d="M561.69,1841.58c-0.14,0-0.29-0.06-0.38-0.18c-37.49-44.91-70.81-93.57-99.03-144.65
				c-0.13-0.24-0.05-0.55,0.2-0.68c0.24-0.14,0.55-0.05,0.68,0.2c28.19,51.02,61.47,99.63,98.92,144.49
				c0.18,0.21,0.15,0.53-0.06,0.7C561.92,1841.55,561.8,1841.58,561.69,1841.58z"/>
		</g>
	</g>
	<g>
		<g>
			<path class="st3" d="M1951.19,1695.7c-0.09,0-0.17-0.02-0.25-0.07c-0.24-0.14-0.32-0.45-0.18-0.68
				c29.61-50.38,54.5-103.78,73.98-158.72c0.09-0.26,0.38-0.4,0.64-0.3c0.26,0.09,0.4,0.38,0.3,0.64
				c-19.5,55-44.42,108.46-74.06,158.89C1951.53,1695.61,1951.36,1695.7,1951.19,1695.7z"/>
		</g>
	</g>
	<g>
		<g>
			<path class="st3" d="M1266.56,2169.56c-66.32,0-132.49-7.1-196.7-21.12c-0.27-0.06-0.44-0.33-0.38-0.59
				c0.06-0.27,0.33-0.44,0.59-0.38c64.13,14,130.24,21.09,196.48,21.09c62.31,0,124.57-6.28,185.07-18.68
				c0.27-0.05,0.53,0.12,0.59,0.39c0.05,0.27-0.12,0.54-0.39,0.59C1391.27,2163.27,1328.94,2169.56,1266.56,2169.56z"/>
		</g>
	</g>
	<g>
		<g>
			<path class="st2" d="M2038.58,1698.39c-0.09,0-0.18-0.02-0.26-0.07c-0.24-0.14-0.31-0.45-0.17-0.69
				c33.84-56.25,61.79-116.58,83.05-179.31c20-59.01,34.04-120,41.73-181.27c0.03-0.27,0.29-0.47,0.56-0.43
				c0.27,0.03,0.47,0.28,0.43,0.56c-7.69,61.33-21.75,122.39-41.77,181.46c-21.29,62.8-49.26,123.2-83.14,179.51
				C2038.92,1698.31,2038.75,1698.39,2038.58,1698.39z"/>
		</g>
	</g>
	<g>
		<g>
			<path class="st0" d="M369.52,1446.7c-0.23,0-0.44-0.16-0.49-0.39c-13.77-63.67-20.76-129.29-20.76-195.04
				c0-131.93,27.38-259.28,81.38-378.49c0.11-0.25,0.41-0.36,0.66-0.25s0.36,0.41,0.25,0.66
				c-53.94,119.09-81.29,246.29-81.29,378.08c0,65.68,6.98,131.23,20.73,194.83c0.06,0.27-0.11,0.54-0.38,0.59
				C369.59,1446.7,369.56,1446.7,369.52,1446.7z"/>
		</g>
	</g>
	<g>
		<g>
			<path class="st2" d="M257.08,877.63c-0.06,0-0.12-0.01-0.18-0.04c-0.26-0.1-0.38-0.39-0.28-0.65
				c30.66-77.66,70.98-151.56,119.83-219.63c0.16-0.22,0.47-0.28,0.7-0.11c0.22,0.16,0.28,0.47,0.11,0.7
				c-48.8,68.01-89.08,141.83-119.71,219.42C257.47,877.51,257.28,877.63,257.08,877.63z"/>
		</g>
	</g>
	<g>
		<g>
			<path class="st2" d="M2272.85,877.63c-0.2,0-0.39-0.12-0.46-0.32c-30.63-77.59-70.91-151.41-119.71-219.42
				c-0.16-0.22-0.11-0.54,0.11-0.7s0.54-0.11,0.7,0.11c48.85,68.08,89.17,141.97,119.83,219.63c0.1,0.26-0.02,0.55-0.28,0.65
				C2272.97,877.62,2272.91,877.63,2272.85,877.63z"/>
		</g>
	</g>
	<g>
		<g>
			<path class="st2" d="M1375.4,174.25c-0.09,0.18-0.28,0.29-0.49,0.27c-83.02-8.05-167.09-5.8-249.86,6.69
				c-0.27,0.04-0.53-0.15-0.57-0.42c-0.04-0.27,0.15-0.53,0.42-0.57c82.85-12.5,167-14.76,250.11-6.7c0.27,0.03,0.48,0.27,0.45,0.55
				C1375.45,174.14,1375.43,174.2,1375.4,174.25z"/>
		</g>
	</g>
	<g>
		<g>
			<g>
				<g>
					<g>
						<path class="st2" d="M1213.78,2322.58L1213.78,2322.58c-74.21-1.42-148.17-10.71-219.82-27.62
							c-69.81-16.48-138.14-40.35-203.08-70.94c-176.19-83-325.4-213.51-431.47-377.4c-108.9-168.25-166.46-363.6-166.46-564.92
							c0-49.37,3.49-99.01,10.37-147.54c0.04-0.27,0.29-0.46,0.57-0.42c0.27,0.04,0.46,0.29,0.42,0.57
							c-6.88,48.48-10.36,98.07-10.36,147.39c0,201.13,57.5,396.29,166.29,564.38c105.98,163.74,255.03,294.12,431.06,377.04
							c64.88,30.56,133.14,54.41,202.88,70.87c71.59,16.9,145.47,26.18,219.6,27.6c0.28,0.01,0.5,0.23,0.49,0.51
							C1214.28,2322.37,1214.05,2322.58,1213.78,2322.58z"/>
					</g>
				</g>
				<g>
					<g>
						<g>
							<g>
								<path class="st2" d="M1213.25,2302.87c10.39,0.29,18.57,8.95,18.28,19.33c-0.29,10.39-8.95,18.57-19.33,18.28
									c-10.39-0.29-18.57-8.95-18.28-19.33S1202.86,2302.59,1213.25,2302.87z"/>
							</g>
						</g>
						<g>
							<g>
								<path class="st2" d="M1213.32,2300.37c-11.75-0.33-21.58,8.97-21.9,20.72c-0.33,11.75,8.97,21.58,20.72,21.9
									c11.75,0.33,21.58-8.97,21.9-20.71C1234.36,2310.53,1225.07,2300.7,1213.32,2300.37S1225.07,2300.7,1213.32,2300.37z
									 M1212.27,2337.99c-8.99-0.25-16.1-7.77-15.85-16.76s7.77-16.1,16.76-15.85s16.1,7.77,15.85,16.76
									S1221.26,2338.24,1212.27,2337.99S1221.26,2338.24,1212.27,2337.99z"/>
							</g>
						</g>
					</g>
				</g>
				<g>
					<g>
						<g>
							<g>
								
									<ellipse transform="matrix(0.7991 -0.6012 0.6012 0.7991 -641.5736 350.6632)" class="st2" cx="203.9" cy="1135.29" rx="18.82" ry="18.82"/>
							</g>
						</g>
						<g>
							<g>
								<path class="st2" d="M224.99,1138.3c-1.65,11.64-12.45,19.77-24.09,18.12c-11.64-1.64-19.77-12.45-18.12-24.09
									c1.65-11.64,12.45-19.77,24.09-18.12C218.5,1115.85,226.63,1126.66,224.99,1138.3
									C223.34,1149.93,226.63,1126.66,224.99,1138.3z M187.73,1133.03c-1.26,8.91,4.96,17.18,13.87,18.44
									c8.91,1.26,17.18-4.96,18.44-13.87s-4.96-17.18-13.87-18.44C197.25,1117.9,188.98,1124.12,187.73,1133.03
									C186.47,1141.94,188.98,1124.12,187.73,1133.03z"/>
							</g>
						</g>
					</g>
				</g>
			</g>
		</g>
	</g>
	<g>
		<g>
			<g>
				<g>
					<path class="st2" d="M1865.67,697.4c-0.13,0-0.27-0.05-0.37-0.16c-37.24-40.23-78.67-76.83-123.14-108.79
						c-44.85-32.24-93.08-59.97-143.37-82.42c-104.77-46.78-216.55-70.5-332.23-70.5c-111.61,0-219.77,22.13-321.47,65.79
						c-0.25,0.11-0.55-0.01-0.66-0.26s0.01-0.55,0.26-0.66c101.83-43.71,210.12-65.87,321.87-65.87
						c115.82,0,227.74,23.75,332.64,70.58c50.35,22.48,98.64,50.24,143.55,82.52c44.52,32,86,68.65,123.29,108.93
						c0.19,0.2,0.17,0.52-0.03,0.71C1865.92,697.36,1865.79,697.4,1865.67,697.4z"/>
				</g>
			</g>
			<g>
				<g>
					<g>
						<path class="st2" d="M953.21,517.65c-9.36,4-20.19-0.35-24.19-9.71c-4-9.36,0.35-20.19,9.71-24.19
							c9.36-4,20.19,0.35,24.19,9.71C966.92,502.82,962.58,513.65,953.21,517.65z"/>
					</g>
				</g>
				<g>
					<g>
						<path class="st2" d="M954.18,519.9c10.59-4.52,15.53-16.82,11.01-27.4c-4.52-10.59-16.82-15.53-27.4-11.01
							c-10.59,4.52-15.53,16.82-11.01,27.4C931.29,519.49,943.59,524.42,954.18,519.9C964.77,515.38,943.59,524.42,954.18,519.9z
							 M939.7,486c8.1-3.46,17.51,0.32,20.97,8.42c3.46,8.11-0.32,17.51-8.42,20.97c-8.11,3.46-17.51-0.32-20.97-8.42
							C927.82,498.87,931.6,489.46,939.7,486C947.81,482.54,931.6,489.46,939.7,486z"/>
					</g>
				</g>
			</g>
			<g>
				<g>
					<g>
						<path class="st2" d="M1851.26,708.87c6.93,7.46,18.59,7.89,26.05,0.96c7.46-6.93,7.89-18.59,0.96-26.05
							c-6.93-7.46-18.59-7.89-26.05-0.96C1844.77,689.75,1844.34,701.41,1851.26,708.87z"/>
					</g>
				</g>
				<g>
					<g>
						<path class="st2" d="M1849.47,710.54c-7.84-8.44-7.35-21.68,1.09-29.51c8.44-7.84,21.68-7.35,29.51,1.09
							c7.84,8.44,7.35,21.68-1.09,29.51S1857.3,718.97,1849.47,710.54C1841.63,702.1,1857.3,718.97,1849.47,710.54z M1876.48,685.45
							c-6-6.46-16.13-6.83-22.58-0.83c-6.46,6-6.83,16.13-0.83,22.58c6,6.46,16.13,6.83,22.58,0.83
							C1882.1,702.04,1882.47,691.91,1876.48,685.45C1870.48,678.99,1882.47,691.91,1876.48,685.45z"/>
					</g>
				</g>
			</g>
		</g>
		<g>
			<g>
				<path class="st3" d="M454.54,1335.23c-0.25,0-0.47-0.19-0.5-0.45c-2.8-27.54-4.22-55.64-4.22-83.51
					c0-73.38,9.73-146.13,28.93-216.23c18.61-67.98,46.09-133.39,81.67-194.43c0.14-0.24,0.45-0.32,0.68-0.18
					c0.24,0.14,0.32,0.44,0.18,0.68c-35.53,60.97-62.97,126.3-81.57,194.19c-19.17,70.01-28.89,142.68-28.89,215.97
					c0,27.83,1.42,55.89,4.21,83.41c0.03,0.28-0.17,0.52-0.45,0.55C454.57,1335.22,454.55,1335.23,454.54,1335.23z"/>
			</g>
		</g>
		<g>
			<g>
				<path class="st0" d="M1707.68,2247.37c-0.21,0-0.41-0.13-0.48-0.35c-0.08-0.26,0.06-0.54,0.32-0.63
					c67.14-21.71,131.17-52.08,190.32-90.25c60.99-39.37,116.71-87.01,165.6-141.61c18.57-20.73,36.23-42.58,52.5-64.94
					c0.16-0.22,0.48-0.27,0.7-0.11s0.27,0.48,0.11,0.7c-16.29,22.39-33.98,44.26-52.57,65.02
					c-48.95,54.66-104.74,102.36-165.8,141.78c-59.22,38.22-123.33,68.62-190.55,90.36
					C1707.78,2247.37,1707.73,2247.37,1707.68,2247.37z"/>
			</g>
		</g>
		<g>
			<g>
				<path class="st0" d="M2069.64,1335.23c-0.02,0-0.03,0-0.05,0c-0.27-0.03-0.47-0.27-0.45-0.55c2.79-27.51,4.21-55.57,4.21-83.41
					c0-73.29-9.72-145.95-28.89-215.97c-18.59-67.89-46.03-133.23-81.57-194.19c-0.14-0.24-0.06-0.54,0.18-0.68
					c0.24-0.14,0.54-0.06,0.68,0.18c35.58,61.04,63.05,126.46,81.67,194.43c19.2,70.1,28.93,142.85,28.93,216.23
					c0,27.87-1.42,55.96-4.22,83.51C2070.11,1335.03,2069.89,1335.23,2069.64,1335.23z"/>
			</g>
		</g>
		<g>
			<g>
				<g>
					<path class="st3" d="M669.63,571.61c-0.14,0-0.28-0.06-0.38-0.17c-0.18-0.21-0.16-0.53,0.05-0.71
						c81.45-69.81,173.41-124.3,273.32-161.98c103.42-39,212.41-58.77,323.94-58.77c74.07,0,147.77,8.84,219.04,26.29
						c69.24,16.95,136.55,42.08,200.04,74.7c0.25,0.13,0.34,0.43,0.22,0.67c-0.13,0.25-0.43,0.34-0.67,0.22
						c-63.43-32.59-130.66-57.69-199.82-74.62c-71.2-17.42-144.81-26.26-218.8-26.26c-111.41,0-220.28,19.75-323.58,58.7
						c-99.8,37.63-191.66,92.07-273.03,161.8C669.86,571.57,669.74,571.61,669.63,571.61z"/>
				</g>
			</g>
			<g>
				<g>
					<g>
						<path class="st3" d="M682.56,584.6c-7.73,6.62-19.37,5.72-25.99-2.02c-6.62-7.73-5.71-19.37,2.02-25.99
							c7.73-6.62,19.37-5.71,25.99,2.02S690.3,577.98,682.56,584.6z"/>
					</g>
				</g>
				<g>
					<g>
						<path class="st3" d="M684.16,586.46c8.75-7.49,9.77-20.7,2.29-29.44c-7.49-8.75-20.7-9.77-29.44-2.29
							c-8.75,7.49-9.77,20.7-2.29,29.44C662.2,592.92,675.41,593.95,684.16,586.46C692.9,578.97,675.41,593.95,684.16,586.46z
							 M660.19,558.45c6.7-5.73,16.8-4.95,22.53,1.75c5.73,6.7,4.95,16.8-1.75,22.53c-6.7,5.73-16.8,4.95-22.53-1.75
							C652.71,574.29,653.49,564.19,660.19,558.45C666.88,552.72,653.49,564.19,660.19,558.45z"/>
					</g>
				</g>
			</g>
			<g>
				<g>
					<g>
						<path class="st3" d="M1676.03,467.76c9.09,4.57,20.17,0.91,24.75-8.18c4.57-9.09,0.91-20.17-8.18-24.75
							c-9.09-4.57-20.17-0.91-24.75,8.18S1666.94,463.19,1676.03,467.76z"/>
					</g>
				</g>
				<g>
					<g>
						<path class="st3" d="M1674.93,469.95c-10.29-5.17-14.45-17.75-9.27-28.04c5.17-10.29,17.75-14.45,28.04-9.27
							c10.29,5.17,14.45,17.75,9.27,28.04C1697.8,470.96,1685.22,475.12,1674.93,469.95
							C1664.65,464.78,1685.22,475.12,1674.93,469.95z M1691.49,437.02c-7.87-3.96-17.5-0.78-21.46,7.1
							c-3.96,7.87-0.78,17.5,7.1,21.46c7.87,3.96,17.5,0.78,21.46-7.1C1702.55,450.6,1699.37,440.98,1691.49,437.02
							C1683.62,433.06,1699.37,440.98,1691.49,437.02z"/>
					</g>
				</g>
			</g>
		</g>
		<g>
			<g>
				<g>
					<path class="st3" d="M1263.1,2225.6c-131.53,0-259.13-25.76-379.25-76.57c-116.02-49.07-220.22-119.33-309.7-208.81
						c-89.48-89.48-159.73-193.68-208.81-309.7c-50.81-120.12-76.57-247.72-76.57-379.25s25.76-259.13,76.57-379.25
						C414.41,756,484.67,651.8,574.14,562.32c89.48-89.48,193.68-159.73,309.7-208.81c120.12-50.81,247.72-76.57,379.25-76.57
						c129.22,0,254.74,24.89,373.08,73.98c114.3,47.41,217.42,115.42,306.49,202.13c88.96,86.6,159.68,187.73,210.19,300.57
						c52.18,116.57,80.5,240.82,84.17,369.29l-1,0.03c-3.67-128.34-31.96-252.46-84.08-368.91
						c-50.46-112.73-121.1-213.75-209.97-300.26c-88.98-86.62-192-154.56-306.17-201.92c-118.21-49.04-243.61-73.9-372.69-73.9
						c-131.4,0-258.87,25.73-378.86,76.49c-115.9,49.02-219.99,119.2-309.38,208.59S415.28,756.5,366.26,872.41
						c-50.75,120-76.49,247.46-76.49,378.86s25.73,258.87,76.49,378.86c49.02,115.9,119.2,219.99,208.59,309.38
						s193.48,159.57,309.38,208.59c120,50.75,247.46,76.49,378.86,76.49s258.87-25.73,378.86-76.49
						c115.9-49.02,220-119.2,309.38-208.59c89.39-89.39,159.57-193.48,208.59-309.38c50.75-120,76.49-247.46,76.49-378.86h1
						c0,131.53-25.76,259.13-76.57,379.25c-49.07,116.02-119.33,220.22-208.81,309.7c-89.48,89.48-193.68,159.73-309.7,208.81
						C1522.23,2199.83,1394.63,2225.6,1263.1,2225.6z"/>
				</g>
			</g>
			<g>
				<g>
					<g>
						<path class="st3" d="M2262.49,1220.78c0.37,14.54-11.12,26.62-25.66,26.99c-14.54,0.37-26.62-11.12-26.99-25.66
							c-0.37-14.54,11.12-26.62,25.66-26.99C2250.04,1194.76,2262.12,1206.25,2262.49,1220.78z"/>
					</g>
				</g>
				<g>
					<g>
						<path class="st3" d="M2265.99,1220.69c-0.42-16.44-14.13-29.48-30.58-29.07c-16.44,0.42-29.48,14.13-29.07,30.58
							s14.13,29.48,30.58,29.07C2253.37,1250.85,2266.41,1237.14,2265.99,1220.69C2265.57,1204.25,2266.41,1237.14,2265.99,1220.69z
							 M2213.35,1222.02c-0.32-12.59,9.66-23.08,22.24-23.4c12.59-0.32,23.08,9.66,23.4,22.24c0.32,12.59-9.66,23.08-22.24,23.4
							C2224.16,1244.59,2213.67,1234.61,2213.35,1222.02C2213.03,1209.44,2213.67,1234.61,2213.35,1222.02z"/>
					</g>
				</g>
			</g>
		</g>
	</g>
</g>
<text class="st4 st5"> </text>
<g>
	<g>
		<path class="st3" d="M1985.5,882c-0.17,0-0.35-0.09-0.44-0.26c-0.13-0.24-0.05-0.55,0.19-0.68l142-79
			c0.24-0.13,0.55-0.05,0.68,0.19s0.05,0.55-0.19,0.68l-142,79C1985.67,881.98,1985.58,882,1985.5,882z"/>
	</g>
</g>
<g>
	<g>
		<path class="st3" d="M560.5,841c-0.08,0-0.17-0.02-0.24-0.06l-140-78c-0.24-0.13-0.33-0.44-0.19-0.68
			c0.13-0.24,0.44-0.33,0.68-0.19l140,78c0.24,0.13,0.33,0.44,0.19,0.68C560.85,840.91,560.67,841,560.5,841z"/>
	</g>
</g>
<g>
	<g>
		<path class="st2" d="M2178.5,1776c-0.08,0-0.17-0.02-0.24-0.06l-140-78c-0.24-0.13-0.33-0.44-0.19-0.68
			c0.13-0.24,0.44-0.33,0.68-0.19l140,78c0.24,0.13,0.33,0.44,0.19,0.68C2178.85,1775.91,2178.67,1776,2178.5,1776z"/>
	</g>
</g>
<g>
	<g>
		<path class="st2" d="M318.5,1777c-0.17,0-0.35-0.09-0.44-0.26c-0.13-0.24-0.05-0.55,0.19-0.68l144-80
			c0.24-0.13,0.55-0.05,0.68,0.19s0.05,0.55-0.19,0.68l-144,80C318.67,1776.98,318.58,1777,318.5,1777z"/>
	</g>
</g>
<g>
	<g>
		<path class="st2" d="M2197.5,1808c-11.86,0-21.5-9.64-21.5-21.5s9.64-21.5,21.5-21.5s21.5,9.64,21.5,21.5
			S2209.36,1808,2197.5,1808z M2197.5,1770c-9.1,0-16.5,7.4-16.5,16.5s7.4,16.5,16.5,16.5s16.5-7.4,16.5-16.5
			S2206.6,1770,2197.5,1770z"/>
	</g>
</g>
<g>
	<g>
		<path class="st3" d="M1249.5,351c-0.28,0-0.5-0.22-0.5-0.5v-73c0-0.28,0.22-0.5,0.5-0.5s0.5,0.22,0.5,0.5v73
			C1250,350.78,1249.78,351,1249.5,351z"/>
	</g>
</g>
<g>
	<g>
		<path class="st3" d="M1249.5,2225c-0.28,0-0.5-0.22-0.5-0.5v-55c0-0.28,0.22-0.5,0.5-0.5s0.5,0.22,0.5,0.5v55
			C1250,2224.78,1249.78,2225,1249.5,2225z"/>
	</g>
</g>
<g>
	<g>
		<g>
			<g>
				<path class="st1" d="M2075.02,1317.18c9.76,2.9,15.31,13.17,12.41,22.92c-2.9,9.75-13.17,15.31-22.92,12.41
					c-9.76-2.9-15.31-13.17-12.41-22.92S2065.26,1314.28,2075.02,1317.18z"/>
			</g>
		</g>
		<g>
			<g>
				<path class="st0" d="M2075.71,1314.83c-11.03-3.28-22.69,3.02-25.97,14.06c-3.28,11.03,3.02,22.69,14.06,25.97
					s22.69-3.02,25.97-14.06C2093.06,1329.77,2086.75,1318.12,2075.71,1314.83C2064.68,1311.55,2086.75,1318.12,2075.71,1314.83z
					 M2065.2,1350.16c-8.45-2.51-13.27-11.43-10.76-19.87c2.51-8.45,11.43-13.27,19.87-10.76s13.27,11.43,10.76,19.87
					C2082.56,1347.85,2073.65,1352.68,2065.2,1350.16C2056.75,1347.65,2073.65,1352.68,2065.2,1350.16z"/>
			</g>
		</g>
	</g>
</g>
<g>
	<g>
		<g>
			<g>
				<path class="st0" d="M1712.02,2230.18c9.76,2.9,15.31,13.17,12.41,22.92s-13.17,15.31-22.92,12.41
					c-9.76-2.9-15.31-13.17-12.41-22.92S1702.26,2227.28,1712.02,2230.18z"/>
			</g>
		</g>
		<g>
			<g>
				<path class="st0" d="M1712.71,2227.83c-11.03-3.28-22.69,3.02-25.97,14.06c-3.28,11.03,3.02,22.69,14.06,25.97
					s22.69-3.02,25.97-14.06C1730.06,2242.77,1723.75,2231.12,1712.71,2227.83C1701.68,2224.55,1723.75,2231.12,1712.71,2227.83z
					 M1702.2,2263.16c-8.45-2.51-13.27-11.43-10.76-19.87c2.51-8.45,11.43-13.27,19.87-10.76s13.27,11.43,10.76,19.87
					C1719.56,2260.85,1710.65,2265.68,1702.2,2263.16C1693.75,2260.65,1710.65,2265.68,1702.2,2263.16z"/>
			</g>
		</g>
	</g>
</g>
<g>
	<g>
		<g>
			<g>
				<path class="st1" d="M1969.02,822.18c9.76,2.9,15.31,13.17,12.41,22.92s-13.17,15.31-22.92,12.41
					c-9.76-2.9-15.31-13.17-12.41-22.92S1959.26,819.28,1969.02,822.18z"/>
			</g>
		</g>
		<g>
			<g>
				<path class="st0" d="M1969.71,819.83c-11.03-3.28-22.69,3.02-25.97,14.06c-3.28,11.03,3.02,22.69,14.06,25.97
					c11.04,3.28,22.69-3.02,25.97-14.06C1987.06,834.77,1980.75,823.12,1969.71,819.83
					C1958.68,816.55,1980.75,823.12,1969.71,819.83z M1959.2,855.16c-8.45-2.51-13.27-11.43-10.76-19.87
					c2.51-8.45,11.43-13.27,19.87-10.76s13.27,11.43,10.76,19.87C1976.56,852.85,1967.65,857.68,1959.2,855.16
					C1950.75,852.65,1967.65,857.68,1959.2,855.16z"/>
			</g>
		</g>
	</g>
</g>
<g>
	<g>
		<path class="st2" d="M359,2007.76c0.19-0.06,0.41-0.01,0.54,0.16c53.15,64.29,114.31,122.01,181.77,171.56
			c0.22,0.16,0.27,0.48,0.11,0.7c-0.16,0.22-0.48,0.27-0.7,0.11c-67.53-49.6-128.75-107.38-181.95-171.73
			c-0.18-0.21-0.15-0.53,0.07-0.7C358.89,2007.8,358.94,2007.77,359,2007.76z"/>
	</g>
</g>
<text class="st4 st5"> </text>
<text class="st4 st5"> </text>
<text class="st4 st5"> </text>
<text class="st4 st5"> </text>
<text class="st4 st5"> </text>
<text class="st4 st5"> </text>
<g>
	<g>
		<g>
			<g>
				<path class="st2" d="M351.91,1982.22c10.39,0.29,18.57,8.95,18.28,19.33c-0.29,10.39-8.95,18.57-19.33,18.28
					c-10.39-0.29-18.57-8.95-18.28-19.33C332.87,1990.12,341.52,1981.93,351.91,1982.22z"/>
			</g>
		</g>
		<g>
			<g>
				<path class="st2" d="M351.98,1979.72c-11.75-0.33-21.58,8.97-21.9,20.72c-0.33,11.75,8.97,21.58,20.72,21.9
					c11.75,0.33,21.58-8.97,21.9-20.71C373.02,1989.87,363.73,1980.05,351.98,1979.72C340.23,1979.39,363.73,1980.05,351.98,1979.72
					z M350.93,2017.34c-8.99-0.25-16.1-7.77-15.85-16.76s7.77-16.1,16.76-15.85c8.99,0.25,16.1,7.77,15.85,16.76
					S359.92,2017.59,350.93,2017.34C341.94,2017.08,359.92,2017.59,350.93,2017.34z"/>
			</g>
		</g>
	</g>
</g>
</svg>
