<svg width="18" height="13" viewBox="0 0 18 13" fill="none" xmlns="http://www.w3.org/2000/svg">
<path d="M16.8182 0H1.18182C0.530303 0 0 0.541667 0 1.20714V11.8083C0 12.4583 0.530303 13 1.18182 13H16.8182C17.4697 13 18 12.4583 18 11.7929V1.20714C18 0.541667 17.4697 0 16.8182 0ZM16.4091 0.928571L9.66667 7.75357C9.30303 8.125 8.69697 8.125 8.31818 7.75357L1.59091 0.928571H16.4091ZM0.909091 11.3131V1.54762L5.4697 6.175L0.909091 11.3131ZM1.4697 12.0714L6.12121 6.825L7.68182 8.40357C8.04545 8.775 8.51515 8.94524 9 8.94524C9.4697 8.94524 9.95454 8.75952 10.3182 8.40357L11.8485 6.85595L16.5152 12.0714H1.4697ZM17.0909 11.3286L12.4848 6.20595L17.0909 1.54762V11.3286Z" fill="#5EBBBB"/>
</svg>
