<svg width="17" height="18" viewBox="0 0 17 18" fill="none" xmlns="http://www.w3.org/2000/svg">
<path d="M15.8677 12.5807C15.5265 12.3549 15.1852 12.0807 14.8595 11.8387C13.5411 10.8226 12.0675 9.67744 10.8732 10.9032C10.1597 11.6452 9.53924 11.4839 9.36862 11.4194C9.15146 11.2258 8.26734 10.4516 7.3677 9.51615C6.20438 8.3226 6.09581 7.79034 6.76278 6.66131C7.83303 4.83873 7.38321 4.16131 5.86314 1.91937L5.8011 1.8226C5.01004 0.645179 4.37409 0.0967918 3.6761 0.0161466C2.83851 -0.0967566 2.07847 0.483889 1.45803 1.0484C-0.093063 2.45163 -0.434304 4.75808 0.573908 7.04841C1.2719 8.66131 3.36588 12.7258 7.5073 15.6129C9.60128 17.0645 11.323 18 12.9051 18C13.9599 18 14.937 17.5968 15.9142 16.6774C16.6743 15.9516 17.0465 15.1936 16.9845 14.4194C16.8914 13.3065 15.9453 12.6291 15.8677 12.5807ZM15.2938 15.9516C13.4945 17.6452 11.6642 17.3549 8.01916 14.8065C4.07938 12.0484 2.07847 8.17744 1.4115 6.64518C0.573908 4.72582 0.822083 2.91937 2.06296 1.77421C2.6834 1.2097 3.1177 0.96776 3.47446 0.96776C3.50548 0.96776 3.5365 0.96776 3.56752 0.96776C3.97081 1.01615 4.43613 1.46776 5.04106 2.35486L5.10311 2.45163C6.59216 4.67744 6.71624 4.85486 5.95621 6.14518C4.948 7.85486 5.44435 8.88711 6.70073 10.1936C7.77099 11.3065 8.7792 12.1613 8.82573 12.1936C8.85676 12.2097 8.88778 12.242 8.90329 12.2581C8.94982 12.2903 10.2217 12.9355 11.5246 11.5807C12.083 11 12.8276 11.4678 14.3011 12.6129C14.6423 12.871 14.9836 13.1452 15.3403 13.3871C15.3403 13.3871 15.9918 13.8387 16.0383 14.5C16.0849 14.9516 15.8367 15.4355 15.2938 15.9516Z" fill="white"/>
<path d="M13.4948 8.62936H14.4254C14.4254 5.48419 11.9592 2.91968 8.93457 2.91968V3.88742C11.4473 3.88742 13.4948 6.01645 13.4948 8.62936Z" fill="white"/>
<path d="M16.0696 8.62904H17.0003C17.0003 4.00001 13.3862 0.241943 8.93457 0.241943V1.20969C12.8743 1.20969 16.0696 4.5484 16.0696 8.62904Z" fill="white"/>
</svg>
