<svg width="17" height="22" viewBox="0 0 17 22" fill="none" xmlns="http://www.w3.org/2000/svg">
<g clip-path="url(#clip0)">
<path d="M8.50015 4.59302C6.41817 4.59302 4.73193 6.22388 4.73193 8.2375C4.73193 10.2511 6.41817 11.882 8.50015 11.882C10.5821 11.882 12.2684 10.2511 12.2684 8.2375C12.2684 6.22388 10.5821 4.59302 8.50015 4.59302ZM8.50015 10.8668C7.00319 10.8668 5.76432 9.6853 5.76432 8.22085C5.76432 6.77305 6.98598 5.57486 8.50015 5.57486C9.99712 5.57486 11.236 6.75641 11.236 8.22085C11.236 9.6853 10.0143 10.8668 8.50015 10.8668Z" fill="#5EBBBB"/>
<path d="M8.5 0C3.81984 0 0 3.6944 0 8.22088C0 14.9607 7.82895 21.6006 8.17308 21.8835C8.27632 21.9667 8.39676 22 8.51721 22C8.63765 22 8.7581 21.9667 8.86134 21.8835C9.18826 21.6006 17.0344 14.9607 17.0344 8.22088C17 3.6944 13.1974 0 8.5 0ZM8.5 20.8185C7.00304 19.4705 1.03239 13.7458 1.03239 8.22088C1.03239 4.24357 4.38765 0.998487 8.5 0.998487C12.6123 0.998487 15.9676 4.24357 15.9676 8.22088C15.9676 13.7458 9.99696 19.4705 8.5 20.8185Z" fill="#5EBBBB"/>
</g>
<defs>
<clipPath id="clip0">
<rect width="17" height="22" fill="white"/>
</clipPath>
</defs>
</svg>
