<svg width="308" height="304" viewBox="0 0 308 304" fill="none" xmlns="http://www.w3.org/2000/svg">
<path d="M153.999 37.9609V3C97.4905 3 48.1841 32.4996 21.7812 76.3123L53.5092 93.8997C73.5689 60.5637 111.048 38.0953 153.999 37.9609Z" fill="white" stroke="#E9F1F5" stroke-width="6" stroke-miterlimit="10"/>
<path d="M153.997 37.9609V3C210.505 3 259.812 32.4996 286.214 76.3123L254.486 93.8997C234.427 60.5637 196.947 38.0953 153.997 37.9609Z" fill="#5EBBBB" stroke="white" stroke-miterlimit="10"/>
<path d="M53.401 209.59L21.7812 227.127C48.1841 270.972 97.4905 300.49 153.999 300.49V265.746C110.966 265.618 73.4353 243.056 53.401 209.59Z" fill="#5EBBBB" stroke="#E9F1F5" stroke-width="6" stroke-miterlimit="10"/>
<path d="M255.169 209.59C235.027 243.094 197.439 265.63 154.38 265.63C154.253 265.63 154.126 265.624 153.999 265.624V300.49C210.507 300.49 259.813 270.869 286.216 226.876L255.169 209.59Z" fill="#5EBBBB" stroke="#E9F1F5" stroke-width="6" stroke-miterlimit="10"/>
<path d="M285.339 77.3723L255.418 94.8961C265.023 111.639 270.528 131.097 270.528 151.869C270.528 172.56 265.066 191.956 255.522 208.655L285.339 226.117C297.821 204.242 305 178.852 305 151.751C305 124.65 297.821 99.2601 285.339 77.3723Z" fill="#5EBBBB" stroke="#E9F1F5" stroke-width="6" stroke-miterlimit="10"/>
<path d="M37.8207 151.866C37.8207 131.231 43.1922 111.885 52.5816 95.2177L22.4496 77.3723C10.0995 99.2529 3 124.642 3 151.742C3 178.841 10.0995 204.23 22.4435 226.117L52.4729 208.334C43.1499 191.703 37.8207 172.42 37.8207 151.866Z" fill="white" stroke="#E9F1F5" stroke-width="6" stroke-miterlimit="10"/>
<path d="M108.902 148.156C107.974 148.156 107.134 147.957 106.38 147.558C105.634 147.151 105.045 146.592 104.612 145.881C104.187 145.162 103.975 144.351 103.975 143.45C103.975 142.549 104.187 141.743 104.612 141.032C105.045 140.313 105.634 139.754 106.38 139.355C107.134 138.948 107.979 138.744 108.915 138.744C109.703 138.744 110.414 138.883 111.047 139.16C111.688 139.437 112.225 139.836 112.659 140.356L111.307 141.604C110.691 140.893 109.929 140.538 109.019 140.538C108.455 140.538 107.953 140.664 107.511 140.915C107.069 141.158 106.722 141.5 106.471 141.942C106.228 142.384 106.107 142.887 106.107 143.45C106.107 144.013 106.228 144.516 106.471 144.958C106.722 145.4 107.069 145.747 107.511 145.998C107.953 146.241 108.455 146.362 109.019 146.362C109.929 146.362 110.691 146.002 111.307 145.283L112.659 146.531C112.225 147.06 111.688 147.463 111.047 147.74C110.405 148.017 109.69 148.156 108.902 148.156ZM121.131 146.05H116.906L116.1 148H113.942L117.998 138.9H120.078L124.147 148H121.937L121.131 146.05ZM120.468 144.451L119.025 140.967L117.582 144.451H120.468ZM130.265 138.9C131.071 138.9 131.769 139.034 132.358 139.303C132.956 139.572 133.415 139.953 133.736 140.447C134.057 140.941 134.217 141.526 134.217 142.202C134.217 142.869 134.057 143.454 133.736 143.957C133.415 144.451 132.956 144.832 132.358 145.101C131.769 145.361 131.071 145.491 130.265 145.491H128.432V148H126.326V138.9H130.265ZM130.148 143.775C130.781 143.775 131.262 143.641 131.591 143.372C131.92 143.095 132.085 142.705 132.085 142.202C132.085 141.691 131.92 141.301 131.591 141.032C131.262 140.755 130.781 140.616 130.148 140.616H128.432V143.775H130.148ZM142.492 146.05H138.267L137.461 148H135.303L139.359 138.9H141.439L145.508 148H143.298L142.492 146.05ZM141.829 144.451L140.386 140.967L138.943 144.451H141.829ZM154.369 143.268C154.889 143.433 155.296 143.71 155.591 144.1C155.885 144.481 156.033 144.954 156.033 145.517C156.033 146.314 155.721 146.93 155.097 147.363C154.481 147.788 153.58 148 152.393 148H147.687V138.9H152.133C153.242 138.9 154.091 139.112 154.681 139.537C155.279 139.962 155.578 140.538 155.578 141.266C155.578 141.708 155.469 142.102 155.253 142.449C155.045 142.796 154.75 143.069 154.369 143.268ZM149.78 140.486V142.631H151.873C152.393 142.631 152.787 142.54 153.056 142.358C153.324 142.176 153.459 141.907 153.459 141.552C153.459 141.197 153.324 140.932 153.056 140.759C152.787 140.577 152.393 140.486 151.873 140.486H149.78ZM152.237 146.414C152.791 146.414 153.207 146.323 153.485 146.141C153.771 145.959 153.914 145.677 153.914 145.296C153.914 144.542 153.355 144.165 152.237 144.165H149.78V146.414H152.237ZM158.862 138.9H160.968V148H158.862V138.9ZM164.363 138.9H166.469V146.284H171.032V148H164.363V138.9ZM174.478 140.616H171.566V138.9H179.496V140.616H176.584V148H174.478V140.616ZM181.864 138.9H183.97V148H181.864V138.9ZM194.411 146.31V148H187.365V138.9H194.242V140.59H189.458V142.566H193.683V144.204H189.458V146.31H194.411ZM200.311 148.156C199.592 148.156 198.894 148.061 198.218 147.87C197.551 147.671 197.014 147.415 196.606 147.103L197.321 145.517C197.711 145.803 198.175 146.033 198.712 146.206C199.25 146.379 199.787 146.466 200.324 146.466C200.922 146.466 201.364 146.379 201.65 146.206C201.936 146.024 202.079 145.786 202.079 145.491C202.079 145.274 201.993 145.097 201.819 144.958C201.655 144.811 201.438 144.694 201.169 144.607C200.909 144.52 200.554 144.425 200.103 144.321C199.41 144.156 198.842 143.992 198.4 143.827C197.958 143.662 197.577 143.398 197.256 143.034C196.944 142.67 196.788 142.185 196.788 141.578C196.788 141.049 196.931 140.573 197.217 140.148C197.503 139.715 197.932 139.372 198.504 139.121C199.085 138.87 199.791 138.744 200.623 138.744C201.204 138.744 201.772 138.813 202.326 138.952C202.881 139.091 203.366 139.29 203.782 139.55L203.132 141.149C202.292 140.672 201.451 140.434 200.61 140.434C200.021 140.434 199.583 140.529 199.297 140.72C199.02 140.911 198.881 141.162 198.881 141.474C198.881 141.786 199.042 142.02 199.362 142.176C199.692 142.323 200.19 142.471 200.857 142.618C201.551 142.783 202.118 142.947 202.56 143.112C203.002 143.277 203.379 143.537 203.691 143.892C204.012 144.247 204.172 144.728 204.172 145.335C204.172 145.855 204.025 146.332 203.73 146.765C203.444 147.19 203.011 147.528 202.43 147.779C201.85 148.03 201.143 148.156 200.311 148.156ZM112.194 158.9L109.217 168H106.955L104.953 161.838L102.886 168H100.637L97.6471 158.9H99.8311L101.885 165.296L104.03 158.9H105.98L108.06 165.348L110.179 158.9H112.194ZM121.651 166.31V168H114.605V158.9H121.482V160.59H116.698V162.566H120.923V164.204H116.698V166.31H121.651ZM133.417 158.9C134.223 158.9 134.921 159.034 135.51 159.303C136.108 159.572 136.567 159.953 136.888 160.447C137.209 160.941 137.369 161.526 137.369 162.202C137.369 162.869 137.209 163.454 136.888 163.957C136.567 164.451 136.108 164.832 135.51 165.101C134.921 165.361 134.223 165.491 133.417 165.491H131.584V168H129.478V158.9H133.417ZM133.3 163.775C133.933 163.775 134.414 163.641 134.743 163.372C135.072 163.095 135.237 162.705 135.237 162.202C135.237 161.691 135.072 161.301 134.743 161.032C134.414 160.755 133.933 160.616 133.3 160.616H131.584V163.775H133.3ZM145.906 168L144.151 165.465H144.047H142.214V168H140.108V158.9H144.047C144.853 158.9 145.55 159.034 146.14 159.303C146.738 159.572 147.197 159.953 147.518 160.447C147.838 160.941 147.999 161.526 147.999 162.202C147.999 162.878 147.834 163.463 147.505 163.957C147.184 164.442 146.725 164.815 146.127 165.075L148.168 168H145.906ZM145.867 162.202C145.867 161.691 145.702 161.301 145.373 161.032C145.043 160.755 144.562 160.616 143.93 160.616H142.214V163.788H143.93C144.562 163.788 145.043 163.649 145.373 163.372C145.702 163.095 145.867 162.705 145.867 162.202ZM155.309 168.156C154.365 168.156 153.511 167.952 152.748 167.545C151.994 167.138 151.401 166.579 150.967 165.868C150.543 165.149 150.33 164.343 150.33 163.45C150.33 162.557 150.543 161.756 150.967 161.045C151.401 160.326 151.994 159.762 152.748 159.355C153.511 158.948 154.365 158.744 155.309 158.744C156.254 158.744 157.103 158.948 157.857 159.355C158.611 159.762 159.205 160.326 159.638 161.045C160.072 161.756 160.288 162.557 160.288 163.45C160.288 164.343 160.072 165.149 159.638 165.868C159.205 166.579 158.611 167.138 157.857 167.545C157.103 167.952 156.254 168.156 155.309 168.156ZM155.309 166.362C155.847 166.362 156.332 166.241 156.765 165.998C157.199 165.747 157.537 165.4 157.779 164.958C158.031 164.516 158.156 164.013 158.156 163.45C158.156 162.887 158.031 162.384 157.779 161.942C157.537 161.5 157.199 161.158 156.765 160.915C156.332 160.664 155.847 160.538 155.309 160.538C154.772 160.538 154.287 160.664 153.853 160.915C153.42 161.158 153.078 161.5 152.826 161.942C152.584 162.384 152.462 162.887 152.462 163.45C152.462 164.013 152.584 164.516 152.826 164.958C153.078 165.4 153.42 165.747 153.853 165.998C154.287 166.241 154.772 166.362 155.309 166.362ZM171.55 158.9L167.611 168H165.531L161.605 158.9H163.88L166.649 165.4L169.457 158.9H171.55ZM173.545 158.9H175.651V168H173.545V158.9ZM179.046 158.9H183.18C184.168 158.9 185.039 159.091 185.793 159.472C186.555 159.845 187.145 160.373 187.561 161.058C187.985 161.743 188.198 162.54 188.198 163.45C188.198 164.36 187.985 165.157 187.561 165.842C187.145 166.527 186.555 167.06 185.793 167.441C185.039 167.814 184.168 168 183.18 168H179.046V158.9ZM183.076 166.271C183.986 166.271 184.709 166.02 185.247 165.517C185.793 165.006 186.066 164.317 186.066 163.45C186.066 162.583 185.793 161.899 185.247 161.396C184.709 160.885 183.986 160.629 183.076 160.629H181.152V166.271H183.076ZM198.067 166.31V168H191.021V158.9H197.898V160.59H193.114V162.566H197.339V164.204H193.114V166.31H198.067ZM200.978 158.9H205.112C206.1 158.9 206.971 159.091 207.725 159.472C208.487 159.845 209.077 160.373 209.493 161.058C209.917 161.743 210.13 162.54 210.13 163.45C210.13 164.36 209.917 165.157 209.493 165.842C209.077 166.527 208.487 167.06 207.725 167.441C206.971 167.814 206.1 168 205.112 168H200.978V158.9ZM205.008 166.271C205.918 166.271 206.641 166.02 207.179 165.517C207.725 165.006 207.998 164.317 207.998 163.45C207.998 162.583 207.725 161.899 207.179 161.396C206.641 160.885 205.918 160.629 205.008 160.629H203.084V166.271H205.008Z" fill="#49A9A9"/>
</svg>
